<mxfile host="65bd71144e" modified="2021-01-25T11:13:04.911Z" agent="5.0 (Windows NT 10.0; Win64; x64) AppleWebKit/537.36 (KHTML, like Gecko) Code-Insiders/1.53.0-insider Chrome/87.0.4280.141 Electron/11.2.0 Safari/537.36" version="13.10.0" etag="u09kxYKy4hvNEIclSycI" type="embed" pages="3">
    <diagram id="6B7yGU4xiu5NGQ7RS52c" name="ER-Model">
        <mxGraphModel dx="1149" dy="790" grid="1" gridSize="10" guides="1" tooltips="1" connect="1" arrows="1" fold="1" page="1" pageScale="1" pageWidth="827" pageHeight="1169" math="0" shadow="0">
            <root>
                <mxCell id="0"/>
                <mxCell id="1" parent="0"/>
            </root>
        </mxGraphModel>
    </diagram>
    <diagram id="WIMBKkSyKXid-GT6b2vq" name="Relational Model">
        <mxGraphModel dx="1149" dy="790" grid="1" gridSize="10" guides="1" tooltips="1" connect="1" arrows="1" fold="1" page="1" pageScale="1" pageWidth="827" pageHeight="1169" math="0" shadow="0">
            <root>
                <mxCell id="WcOot98y8HQMscgrqins-0"/>
                <mxCell id="WcOot98y8HQMscgrqins-1" parent="WcOot98y8HQMscgrqins-0"/>
            </root>
        </mxGraphModel>
    </diagram>
    <diagram id="SIxOuA9ryE0MGmLUxK8S" name="Mockup">
        <mxGraphModel dx="1149" dy="790" grid="1" gridSize="10" guides="1" tooltips="1" connect="1" arrows="1" fold="1" page="1" pageScale="1" pageWidth="827" pageHeight="1169" math="0" shadow="0">
            <root>
                <mxCell id="zSGjZsUyypLosez08OG_-0"/>
                <mxCell id="zSGjZsUyypLosez08OG_-1" parent="zSGjZsUyypLosez08OG_-0"/>
            </root>
        </mxGraphModel>
    </diagram>
</mxfile>